<mxfile host="app.diagrams.net" modified="2023-03-20T13:09:46.124Z" agent="5.0 (Windows NT 10.0; Win64; x64) AppleWebKit/537.36 (KHTML, like Gecko) Chrome/111.0.0.0 Safari/537.36" etag="7kVB732cCvEoiBKc7ucN" version="21.0.6" type="github">
  <diagram id="C5RBs43oDa-KdzZeNtuy" name="Page-1">
    <mxGraphModel dx="880" dy="484" grid="1" gridSize="10" guides="1" tooltips="1" connect="1" arrows="1" fold="1" page="1" pageScale="1" pageWidth="827" pageHeight="1169" math="0" shadow="0">
      <root>
        <mxCell id="WIyWlLk6GJQsqaUBKTNV-0" />
        <mxCell id="WIyWlLk6GJQsqaUBKTNV-1" parent="WIyWlLk6GJQsqaUBKTNV-0" />
        <mxCell id="rx6NFJev_Wj9pQWZ_UuV-24" style="edgeStyle=orthogonalEdgeStyle;rounded=0;orthogonalLoop=1;jettySize=auto;html=1;exitX=0.5;exitY=0;exitDx=0;exitDy=0;entryX=0.5;entryY=1;entryDx=0;entryDy=0;" edge="1" parent="WIyWlLk6GJQsqaUBKTNV-1" source="rx6NFJev_Wj9pQWZ_UuV-1" target="rx6NFJev_Wj9pQWZ_UuV-2">
          <mxGeometry relative="1" as="geometry" />
        </mxCell>
        <mxCell id="rx6NFJev_Wj9pQWZ_UuV-1" value="CV sent to Sales" style="rounded=1;whiteSpace=wrap;html=1;" vertex="1" parent="WIyWlLk6GJQsqaUBKTNV-1">
          <mxGeometry x="455" y="530" width="120" height="60" as="geometry" />
        </mxCell>
        <mxCell id="rx6NFJev_Wj9pQWZ_UuV-26" style="edgeStyle=orthogonalEdgeStyle;rounded=0;orthogonalLoop=1;jettySize=auto;html=1;exitX=0.5;exitY=0;exitDx=0;exitDy=0;entryX=0.5;entryY=1;entryDx=0;entryDy=0;" edge="1" parent="WIyWlLk6GJQsqaUBKTNV-1" source="rx6NFJev_Wj9pQWZ_UuV-2" target="rx6NFJev_Wj9pQWZ_UuV-25">
          <mxGeometry relative="1" as="geometry" />
        </mxCell>
        <mxCell id="rx6NFJev_Wj9pQWZ_UuV-2" value="Sales conducts further screening" style="rounded=1;whiteSpace=wrap;html=1;" vertex="1" parent="WIyWlLk6GJQsqaUBKTNV-1">
          <mxGeometry x="455" y="420" width="120" height="60" as="geometry" />
        </mxCell>
        <mxCell id="rx6NFJev_Wj9pQWZ_UuV-41" style="edgeStyle=orthogonalEdgeStyle;rounded=0;orthogonalLoop=1;jettySize=auto;html=1;exitX=1;exitY=0.5;exitDx=0;exitDy=0;" edge="1" parent="WIyWlLk6GJQsqaUBKTNV-1" source="rx6NFJev_Wj9pQWZ_UuV-3" target="rx6NFJev_Wj9pQWZ_UuV-40">
          <mxGeometry relative="1" as="geometry" />
        </mxCell>
        <mxCell id="rx6NFJev_Wj9pQWZ_UuV-3" value="CV sent to client" style="rounded=1;whiteSpace=wrap;html=1;" vertex="1" parent="WIyWlLk6GJQsqaUBKTNV-1">
          <mxGeometry x="455" y="105" width="120" height="60" as="geometry" />
        </mxCell>
        <mxCell id="rx6NFJev_Wj9pQWZ_UuV-5" value="Candidate Onboarding" style="rounded=1;whiteSpace=wrap;html=1;" vertex="1" parent="WIyWlLk6GJQsqaUBKTNV-1">
          <mxGeometry x="640" y="530" width="120" height="60" as="geometry" />
        </mxCell>
        <mxCell id="rx6NFJev_Wj9pQWZ_UuV-16" style="edgeStyle=orthogonalEdgeStyle;rounded=0;orthogonalLoop=1;jettySize=auto;html=1;exitX=0.5;exitY=1;exitDx=0;exitDy=0;entryX=0.5;entryY=0;entryDx=0;entryDy=0;" edge="1" parent="WIyWlLk6GJQsqaUBKTNV-1" source="rx6NFJev_Wj9pQWZ_UuV-7" target="rx6NFJev_Wj9pQWZ_UuV-8">
          <mxGeometry relative="1" as="geometry" />
        </mxCell>
        <mxCell id="rx6NFJev_Wj9pQWZ_UuV-7" value="T&amp;amp;M Req Received" style="rounded=1;whiteSpace=wrap;html=1;" vertex="1" parent="WIyWlLk6GJQsqaUBKTNV-1">
          <mxGeometry x="90" y="60" width="120" height="60" as="geometry" />
        </mxCell>
        <mxCell id="rx6NFJev_Wj9pQWZ_UuV-12" style="edgeStyle=orthogonalEdgeStyle;rounded=0;orthogonalLoop=1;jettySize=auto;html=1;exitX=0.5;exitY=1;exitDx=0;exitDy=0;entryX=0.5;entryY=0;entryDx=0;entryDy=0;" edge="1" parent="WIyWlLk6GJQsqaUBKTNV-1" source="rx6NFJev_Wj9pQWZ_UuV-8" target="rx6NFJev_Wj9pQWZ_UuV-9">
          <mxGeometry relative="1" as="geometry" />
        </mxCell>
        <mxCell id="rx6NFJev_Wj9pQWZ_UuV-8" value="Req Posted in WhatsApp Group" style="rounded=1;whiteSpace=wrap;html=1;" vertex="1" parent="WIyWlLk6GJQsqaUBKTNV-1">
          <mxGeometry x="90" y="160" width="120" height="60" as="geometry" />
        </mxCell>
        <mxCell id="rx6NFJev_Wj9pQWZ_UuV-14" style="edgeStyle=orthogonalEdgeStyle;rounded=0;orthogonalLoop=1;jettySize=auto;html=1;exitX=0.5;exitY=1;exitDx=0;exitDy=0;entryX=0.5;entryY=0;entryDx=0;entryDy=0;" edge="1" parent="WIyWlLk6GJQsqaUBKTNV-1" source="rx6NFJev_Wj9pQWZ_UuV-9" target="rx6NFJev_Wj9pQWZ_UuV-10">
          <mxGeometry relative="1" as="geometry" />
        </mxCell>
        <mxCell id="rx6NFJev_Wj9pQWZ_UuV-9" value="Req Posted in TH" style="rounded=1;whiteSpace=wrap;html=1;" vertex="1" parent="WIyWlLk6GJQsqaUBKTNV-1">
          <mxGeometry x="90" y="260" width="120" height="60" as="geometry" />
        </mxCell>
        <mxCell id="rx6NFJev_Wj9pQWZ_UuV-33" style="edgeStyle=orthogonalEdgeStyle;rounded=0;orthogonalLoop=1;jettySize=auto;html=1;exitX=0.5;exitY=1;exitDx=0;exitDy=0;entryX=0.5;entryY=0;entryDx=0;entryDy=0;" edge="1" parent="WIyWlLk6GJQsqaUBKTNV-1" source="rx6NFJev_Wj9pQWZ_UuV-10" target="rx6NFJev_Wj9pQWZ_UuV-17">
          <mxGeometry relative="1" as="geometry" />
        </mxCell>
        <mxCell id="rx6NFJev_Wj9pQWZ_UuV-10" value="CV Received &amp;amp; Screened" style="rounded=1;whiteSpace=wrap;html=1;" vertex="1" parent="WIyWlLk6GJQsqaUBKTNV-1">
          <mxGeometry x="90" y="360" width="120" height="60" as="geometry" />
        </mxCell>
        <mxCell id="rx6NFJev_Wj9pQWZ_UuV-20" style="edgeStyle=orthogonalEdgeStyle;rounded=0;orthogonalLoop=1;jettySize=auto;html=1;exitX=0;exitY=0.5;exitDx=0;exitDy=0;entryX=0;entryY=0.5;entryDx=0;entryDy=0;" edge="1" parent="WIyWlLk6GJQsqaUBKTNV-1" source="rx6NFJev_Wj9pQWZ_UuV-17" target="rx6NFJev_Wj9pQWZ_UuV-10">
          <mxGeometry relative="1" as="geometry" />
        </mxCell>
        <mxCell id="rx6NFJev_Wj9pQWZ_UuV-23" value="NO" style="edgeLabel;html=1;align=center;verticalAlign=middle;resizable=0;points=[];" vertex="1" connectable="0" parent="rx6NFJev_Wj9pQWZ_UuV-20">
          <mxGeometry x="-0.5167" relative="1" as="geometry">
            <mxPoint y="-24" as="offset" />
          </mxGeometry>
        </mxCell>
        <mxCell id="rx6NFJev_Wj9pQWZ_UuV-38" style="edgeStyle=orthogonalEdgeStyle;rounded=0;orthogonalLoop=1;jettySize=auto;html=1;exitX=1;exitY=0.5;exitDx=0;exitDy=0;entryX=0;entryY=0.5;entryDx=0;entryDy=0;" edge="1" parent="WIyWlLk6GJQsqaUBKTNV-1" source="rx6NFJev_Wj9pQWZ_UuV-17" target="rx6NFJev_Wj9pQWZ_UuV-1">
          <mxGeometry relative="1" as="geometry">
            <mxPoint x="400" y="560" as="targetPoint" />
          </mxGeometry>
        </mxCell>
        <mxCell id="rx6NFJev_Wj9pQWZ_UuV-39" value="YES" style="edgeLabel;html=1;align=center;verticalAlign=middle;resizable=0;points=[];" vertex="1" connectable="0" parent="rx6NFJev_Wj9pQWZ_UuV-38">
          <mxGeometry x="-0.2946" y="-2" relative="1" as="geometry">
            <mxPoint x="7" y="-12" as="offset" />
          </mxGeometry>
        </mxCell>
        <mxCell id="rx6NFJev_Wj9pQWZ_UuV-17" value="CV qualifies" style="rhombus;whiteSpace=wrap;html=1;" vertex="1" parent="WIyWlLk6GJQsqaUBKTNV-1">
          <mxGeometry x="110" y="520" width="80" height="80" as="geometry" />
        </mxCell>
        <mxCell id="rx6NFJev_Wj9pQWZ_UuV-44" value="NO" style="edgeStyle=orthogonalEdgeStyle;rounded=0;orthogonalLoop=1;jettySize=auto;html=1;exitX=0;exitY=0.5;exitDx=0;exitDy=0;entryX=1;entryY=0.5;entryDx=0;entryDy=0;" edge="1" parent="WIyWlLk6GJQsqaUBKTNV-1" source="rx6NFJev_Wj9pQWZ_UuV-25" target="rx6NFJev_Wj9pQWZ_UuV-42">
          <mxGeometry y="-10" relative="1" as="geometry">
            <mxPoint as="offset" />
          </mxGeometry>
        </mxCell>
        <mxCell id="rx6NFJev_Wj9pQWZ_UuV-46" value="YES" style="edgeStyle=orthogonalEdgeStyle;rounded=0;orthogonalLoop=1;jettySize=auto;html=1;exitX=0.5;exitY=0;exitDx=0;exitDy=0;entryX=0.5;entryY=1;entryDx=0;entryDy=0;" edge="1" parent="WIyWlLk6GJQsqaUBKTNV-1" source="rx6NFJev_Wj9pQWZ_UuV-25" target="rx6NFJev_Wj9pQWZ_UuV-3">
          <mxGeometry relative="1" as="geometry" />
        </mxCell>
        <mxCell id="rx6NFJev_Wj9pQWZ_UuV-25" value="Candidate meets requirements" style="rhombus;whiteSpace=wrap;html=1;" vertex="1" parent="WIyWlLk6GJQsqaUBKTNV-1">
          <mxGeometry x="440" y="235" width="150" height="110" as="geometry" />
        </mxCell>
        <mxCell id="rx6NFJev_Wj9pQWZ_UuV-35" style="edgeStyle=orthogonalEdgeStyle;rounded=0;orthogonalLoop=1;jettySize=auto;html=1;exitX=0;exitY=0.5;exitDx=0;exitDy=0;entryX=1;entryY=0.5;entryDx=0;entryDy=0;" edge="1" parent="WIyWlLk6GJQsqaUBKTNV-1" source="rx6NFJev_Wj9pQWZ_UuV-28" target="rx6NFJev_Wj9pQWZ_UuV-10">
          <mxGeometry relative="1" as="geometry" />
        </mxCell>
        <mxCell id="rx6NFJev_Wj9pQWZ_UuV-28" value="&amp;nbsp;Request more candidates" style="rounded=1;whiteSpace=wrap;html=1;" vertex="1" parent="WIyWlLk6GJQsqaUBKTNV-1">
          <mxGeometry x="260" y="360" width="120" height="60" as="geometry" />
        </mxCell>
        <mxCell id="rx6NFJev_Wj9pQWZ_UuV-50" value="YES" style="edgeStyle=orthogonalEdgeStyle;rounded=0;orthogonalLoop=1;jettySize=auto;html=1;exitX=0.5;exitY=1;exitDx=0;exitDy=0;entryX=0.5;entryY=0;entryDx=0;entryDy=0;" edge="1" parent="WIyWlLk6GJQsqaUBKTNV-1" source="rx6NFJev_Wj9pQWZ_UuV-40" target="rx6NFJev_Wj9pQWZ_UuV-49">
          <mxGeometry relative="1" as="geometry" />
        </mxCell>
        <mxCell id="rx6NFJev_Wj9pQWZ_UuV-61" value="NO" style="edgeStyle=orthogonalEdgeStyle;rounded=0;orthogonalLoop=1;jettySize=auto;html=1;exitX=0.5;exitY=0;exitDx=0;exitDy=0;entryX=0.5;entryY=1;entryDx=0;entryDy=0;" edge="1" parent="WIyWlLk6GJQsqaUBKTNV-1" source="rx6NFJev_Wj9pQWZ_UuV-40" target="rx6NFJev_Wj9pQWZ_UuV-55">
          <mxGeometry relative="1" as="geometry" />
        </mxCell>
        <mxCell id="rx6NFJev_Wj9pQWZ_UuV-40" value="Interview &lt;br&gt;Approved" style="rhombus;whiteSpace=wrap;html=1;" vertex="1" parent="WIyWlLk6GJQsqaUBKTNV-1">
          <mxGeometry x="650" y="80" width="100" height="110" as="geometry" />
        </mxCell>
        <mxCell id="rx6NFJev_Wj9pQWZ_UuV-45" style="edgeStyle=orthogonalEdgeStyle;rounded=0;orthogonalLoop=1;jettySize=auto;html=1;exitX=0.5;exitY=1;exitDx=0;exitDy=0;entryX=0.5;entryY=0;entryDx=0;entryDy=0;" edge="1" parent="WIyWlLk6GJQsqaUBKTNV-1" source="rx6NFJev_Wj9pQWZ_UuV-42" target="rx6NFJev_Wj9pQWZ_UuV-28">
          <mxGeometry relative="1" as="geometry" />
        </mxCell>
        <mxCell id="rx6NFJev_Wj9pQWZ_UuV-42" value="Add Candidate&amp;nbsp;&lt;br&gt;&amp;nbsp;to Rejected list" style="rounded=1;whiteSpace=wrap;html=1;" vertex="1" parent="WIyWlLk6GJQsqaUBKTNV-1">
          <mxGeometry x="260" y="260" width="120" height="60" as="geometry" />
        </mxCell>
        <mxCell id="rx6NFJev_Wj9pQWZ_UuV-53" style="edgeStyle=orthogonalEdgeStyle;rounded=0;orthogonalLoop=1;jettySize=auto;html=1;entryX=0.5;entryY=0;entryDx=0;entryDy=0;" edge="1" parent="WIyWlLk6GJQsqaUBKTNV-1" source="rx6NFJev_Wj9pQWZ_UuV-49" target="rx6NFJev_Wj9pQWZ_UuV-52">
          <mxGeometry relative="1" as="geometry" />
        </mxCell>
        <mxCell id="rx6NFJev_Wj9pQWZ_UuV-49" value="Interview Scheduled" style="rounded=1;whiteSpace=wrap;html=1;" vertex="1" parent="WIyWlLk6GJQsqaUBKTNV-1">
          <mxGeometry x="640" y="235" width="120" height="60" as="geometry" />
        </mxCell>
        <mxCell id="rx6NFJev_Wj9pQWZ_UuV-54" value="NO" style="edgeStyle=orthogonalEdgeStyle;rounded=0;orthogonalLoop=1;jettySize=auto;html=1;exitX=1;exitY=0.5;exitDx=0;exitDy=0;" edge="1" parent="WIyWlLk6GJQsqaUBKTNV-1" source="rx6NFJev_Wj9pQWZ_UuV-52" target="rx6NFJev_Wj9pQWZ_UuV-55">
          <mxGeometry x="-0.8824" y="10" relative="1" as="geometry">
            <mxPoint x="790" y="80" as="targetPoint" />
            <Array as="points">
              <mxPoint x="800" y="390" />
              <mxPoint x="800" y="30" />
            </Array>
            <mxPoint as="offset" />
          </mxGeometry>
        </mxCell>
        <mxCell id="rx6NFJev_Wj9pQWZ_UuV-62" value="YES" style="edgeStyle=orthogonalEdgeStyle;rounded=0;orthogonalLoop=1;jettySize=auto;html=1;exitX=0.5;exitY=1;exitDx=0;exitDy=0;entryX=0.5;entryY=0;entryDx=0;entryDy=0;" edge="1" parent="WIyWlLk6GJQsqaUBKTNV-1" source="rx6NFJev_Wj9pQWZ_UuV-52" target="rx6NFJev_Wj9pQWZ_UuV-5">
          <mxGeometry relative="1" as="geometry" />
        </mxCell>
        <mxCell id="rx6NFJev_Wj9pQWZ_UuV-52" value="Interview Successful" style="rhombus;whiteSpace=wrap;html=1;" vertex="1" parent="WIyWlLk6GJQsqaUBKTNV-1">
          <mxGeometry x="660" y="350" width="80" height="80" as="geometry" />
        </mxCell>
        <mxCell id="rx6NFJev_Wj9pQWZ_UuV-60" style="edgeStyle=orthogonalEdgeStyle;rounded=0;orthogonalLoop=1;jettySize=auto;html=1;exitX=0;exitY=0.5;exitDx=0;exitDy=0;entryX=0.5;entryY=0;entryDx=0;entryDy=0;" edge="1" parent="WIyWlLk6GJQsqaUBKTNV-1" source="rx6NFJev_Wj9pQWZ_UuV-55" target="rx6NFJev_Wj9pQWZ_UuV-42">
          <mxGeometry relative="1" as="geometry" />
        </mxCell>
        <mxCell id="rx6NFJev_Wj9pQWZ_UuV-55" value="" style="ellipse;whiteSpace=wrap;html=1;aspect=fixed;" vertex="1" parent="WIyWlLk6GJQsqaUBKTNV-1">
          <mxGeometry x="690" y="20" width="20" height="20" as="geometry" />
        </mxCell>
      </root>
    </mxGraphModel>
  </diagram>
</mxfile>
